<?xml version="1.0" encoding="UTF-8"?>
<svg width="45px" height="26px" viewBox="0 0 45 26" version="1.1" xmlns="http://www.w3.org/2000/svg" xmlns:xlink="http://www.w3.org/1999/xlink">
    <!-- Generator: Sketch 46.2 (44496) - http://www.bohemiancoding.com/sketch -->
    <title>Group</title>
    <desc>Created with Sketch.</desc>
    <defs></defs>
    <g id="Symbols" stroke="none" stroke-width="1" fill="none" fill-rule="evenodd">
        <g id="block/navigation_primary_white" transform="translate(-165.000000, -12.000000)" fill="#303233">
            <g id="Group">
                <g transform="translate(165.000000, 12.000000)">
                    <g id="systemicon/black/djilogo">
                        <path d="M17.9822999,14.0172253 L21.3322723,0 L28.6674466,0 L24.8560701,15.9459198 C24.1224248,19.0236511 21.8345765,19.7624088 19.7179972,19.7624088 L2.81348162,19.7624088 C0.951249717,19.7624088 -0.609344073,18.9712479 0.235498266,15.4180531 L1.75902636,9.05809025 C2.52845917,5.83081808 4.92750466,5.09206033 6.6619238,5.09206033 L18.464154,5.09206033 L17.5119489,9.06831527 L11.4868555,9.06831527 C10.6023912,9.06831527 10.1167027,9.26131253 9.87002406,10.2927615 L8.89609083,14.354651 C8.54971825,15.8117164 9.05969116,15.9114104 10.1243714,15.9114104 L15.6458826,15.9114104 C16.6568816,15.9114104 17.5451803,15.8487821 17.9822999,14.0172253 Z M37.8744387,5.0897597 L45,5.0897597 L41.5477774,19.7626645 L34.422216,19.7626645 L37.8744387,5.0897597 Z M29.1385644,5.0897597 L36.2641257,5.0897597 L32.9461065,18.8807564 C31.5618943,24.6604494 27.6955583,25.9973709 25.077953,25.9973709 L15.0817171,25.9973709 L16.2767664,21.0254545 C16.2767664,21.0254545 21.5937772,21.0510171 21.7829401,21.0280108 C23.684794,20.869523 25.5777009,19.9441586 26.2333804,17.1974624 L29.1385644,5.0897597 Z" id="LOGO"></path>
                    </g>
                </g>
            </g>
        </g>
    </g>
</svg>