<svg width="45" height="26" xmlns="http://www.w3.org/2000/svg"><path d="M17.982 14.017 21.332 0h7.335l-3.81 15.946c-.735 3.078-3.022 3.816-5.139 3.816H2.813c-1.862 0-3.422-.79-2.578-4.344l1.524-6.36c.77-3.227 3.169-3.966 4.903-3.966h11.802l-.952 3.976h-6.025c-.885 0-1.37.193-1.617 1.225l-.974 4.062c-.346 1.457.164 1.556 1.228 1.556h5.522c1.01 0 1.9-.062 2.336-1.894ZM37.874 5.09H45l-3.452 14.673h-7.126L37.874 5.09Zm-8.735 0h7.125l-3.318 13.79c-1.384 5.78-5.25 7.117-7.868 7.117h-9.996l1.195-4.972s5.317.026 5.506.003c1.902-.158 3.795-1.084 4.45-3.83L29.14 5.09Z" fill="#303233" fill-rule="evenodd"/></svg>